<svg width="39" height="28" viewBox="0 0 39 28" fill="none" xmlns="http://www.w3.org/2000/svg">
<path d="M38.0693 4.25854C37.6214 2.59331 36.3084 1.28065 34.6435 0.832248C31.6017 -5.79211e-08 19.4346 0 19.4346 0C19.4346 0 7.268 0 4.22629 0.800727C2.59331 1.24865 1.2484 2.59362 0.800484 4.25854C0 7.30001 0 13.6077 0 13.6077C0 13.6077 0 19.9472 0.800484 22.9568C1.24883 24.6218 2.5613 25.9345 4.22653 26.3829C7.30001 27.2154 19.4351 27.2154 19.4351 27.2154C19.4351 27.2154 31.6017 27.2154 34.6435 26.4146C36.3087 25.9665 37.6214 24.6538 38.0697 22.9888C38.87 19.9471 38.87 13.6397 38.87 13.6397C38.87 13.6397 38.902 7.29995 38.0693 4.25854ZM15.5608 19.4349V7.78036L25.6784 13.6076L15.5608 19.4349Z" fill="white"/>
</svg>
