<svg width="33" height="33" viewBox="0 0 33 33" fill="none" xmlns="http://www.w3.org/2000/svg">
<path d="M25.6368 5.99902C25.2029 5.99902 24.8497 6.35219 24.8497 6.78616C24.8497 7.22012 25.2029 7.57329 25.6368 7.57329C26.0709 7.57329 26.424 7.22019 26.424 6.78616C26.424 6.35212 26.0709 5.99902 25.6368 5.99902ZM16.2121 9.23273C12.3643 9.23273 9.23389 12.3631 9.23389 16.2109C9.23389 20.0587 12.3643 23.1892 16.2121 23.1892C20.0599 23.1892 23.1903 20.0587 23.1903 16.211C23.1903 12.3632 20.0599 9.23273 16.2121 9.23273Z" fill="white"/>
<path d="M23.5344 0H8.88814C3.98721 0 0 3.98721 0 8.8882V23.5344C0 28.4354 3.98721 32.4225 8.88814 32.4225H23.5344C28.4354 32.4225 32.4225 28.4353 32.4225 23.5344V8.8882C32.4225 3.98721 28.4354 0 23.5344 0ZM16.2113 25.1041C11.3077 25.1041 7.31843 21.1148 7.31843 16.2113C7.31843 11.3077 11.3077 7.3185 16.2113 7.3185C21.1148 7.3185 25.1041 11.3077 25.1041 16.2113C25.1041 21.1148 21.1148 25.1041 16.2113 25.1041ZM25.636 9.4884C24.1462 9.4884 22.9342 8.27635 22.9342 6.78657C22.9342 5.29678 24.1462 4.08467 25.636 4.08467C27.1258 4.08467 28.3379 5.29671 28.3379 6.7865C28.3379 8.27629 27.1258 9.4884 25.636 9.4884Z" fill="white"/>
</svg>
