<svg width="31" height="31" viewBox="0 0 31 31" fill="none" xmlns="http://www.w3.org/2000/svg">
<path d="M0.522319 10.2649H6.94911V30.931H0.522319V10.2649ZM3.72436 0C5.79092 0 7.44871 1.65783 7.44871 3.72443C7.44871 5.79104 5.79092 7.44887 3.72436 7.44887C1.65779 7.44887 0 5.76833 0 3.72443C0 1.68054 1.65779 0 3.72436 0Z" fill="white"/>
<path d="M10.9607 10.2655H17.115V13.0815H17.2058C18.0688 11.4464 20.158 9.74316 23.292 9.74316C29.7869 9.74316 30.9905 14.0126 30.9905 19.5766V30.9088H24.5637V20.871C24.5637 18.4638 24.5183 15.3979 21.2254 15.3979C17.9325 15.3979 17.3648 18.0096 17.3648 20.7121V30.9315H10.938V10.2655H10.9607Z" fill="white"/>
</svg>
