<svg width="37" height="38" viewBox="0 0 37 38" fill="none" xmlns="http://www.w3.org/2000/svg">
<path d="M14.8997 22.5356C12.9759 20.5599 11.5021 18.141 10.5007 15.2586C10.2599 14.5586 10.4613 13.7762 10.9718 13.2518L13.7681 10.3802C15.3208 8.78563 15.3208 6.19104 13.7681 4.59645L10.4494 1.19106C8.89669 -0.403534 6.38073 -0.394075 4.82668 1.20187L3.45422 2.61132C0.948796 5.18429 -0.384186 8.79644 0.0974243 12.3978C0.889582 18.5221 3.70556 24.0896 8.53614 29.0707C13.3865 34.0315 18.8079 36.9234 24.7714 37.7369C28.2795 38.2315 31.7969 36.8626 34.3023 34.2896L35.6748 32.8802C37.2275 31.2856 37.238 28.7018 35.6853 27.1059L32.368 23.6991C30.8152 22.1045 28.2888 22.1045 26.736 23.6991L23.9398 26.5707C23.4292 27.095 22.6673 27.3018 21.9857 27.0545C19.1789 26.0248 16.8235 24.5126 14.8997 22.5356Z" fill="white"/>
<path d="M32.3959 3.50293H23.519C22.0649 3.50293 20.8872 4.71239 20.8872 6.20563V12.0989C20.8872 13.5921 22.0649 14.8015 23.519 14.8015H25.8652L27.4324 16.4313C27.7113 16.7218 28.168 16.7218 28.4469 16.4313L30.0141 14.8015H32.3945C33.8486 14.8015 35.0263 13.5921 35.0263 12.0989V6.20563C35.0276 4.71374 33.8499 3.50293 32.3959 3.50293ZM24.898 9.96913C24.4585 9.96913 24.1032 9.60291 24.1032 9.15292C24.1032 8.70292 24.4585 8.3367 24.898 8.3367C25.3375 8.3367 25.6928 8.70292 25.6928 9.15292C25.6928 9.60291 25.3375 9.96913 24.898 9.96913ZM27.9574 9.96913C27.5179 9.96913 27.1626 9.60291 27.1626 9.15292C27.1626 8.70292 27.5192 8.3367 27.9574 8.3367C28.3956 8.3367 28.7522 8.70292 28.7522 9.15292C28.7522 9.60291 28.3969 9.96913 27.9574 9.96913ZM31.0168 9.96913C30.5773 9.96913 30.222 9.60291 30.222 9.15292C30.222 8.70292 30.5786 8.3367 31.0168 8.3367C31.455 8.3367 31.8116 8.70292 31.8116 9.15292C31.8116 9.60291 31.4563 9.96913 31.0168 9.96913Z" fill="white"/>
</svg>
