<svg width="30" height="37" viewBox="0 0 30 37" fill="none" xmlns="http://www.w3.org/2000/svg">
<path d="M25.4428 4.26951C22.6256 1.52013 18.8414 -0.0130393 14.905 8.35514e-05C10.9686 -0.0130393 7.18442 1.52013 4.36723 4.26951C2.98663 5.6073 1.88869 7.20868 1.13853 8.9787C0.388357 10.7487 0.00122718 12.6514 9.06139e-05 14.5738C-0.0137217 18.6407 1.552 22.5541 4.36723 25.4892L14.905 36.4343L25.4428 25.4892C28.258 22.5541 29.8237 18.6407 29.8099 14.5738C29.8088 12.6514 29.4217 10.7487 28.6715 8.9787C27.9213 7.20868 26.8234 5.6073 25.4428 4.26951ZM14.905 19.8733C12.1542 19.8733 9.9367 17.6541 9.9367 14.9033C9.93583 14.2507 10.0638 13.6044 10.3131 13.0013C10.5625 12.3982 10.9285 11.8503 11.39 11.3889C11.8516 10.9275 12.3996 10.5617 13.0028 10.3125C13.606 10.0633 14.2524 9.93561 14.905 9.9367C17.6558 9.9367 19.8733 12.1559 19.8733 14.9033C19.8744 15.5562 19.7467 16.2028 19.4974 16.8062C19.2481 17.4095 18.8822 17.9578 18.4207 18.4195C17.9591 18.8812 17.411 19.2473 16.8077 19.4967C16.2044 19.7462 15.5578 19.8742 14.905 19.8733Z" fill="white"/>
</svg>
